<?xml version="1.0" encoding="UTF-8" standalone="no"?>
<svg
   xmlns:dc="http://purl.org/dc/elements/1.1/"
   xmlns:cc="http://creativecommons.org/ns#"
   xmlns:rdf="http://www.w3.org/1999/02/22-rdf-syntax-ns#"
   xmlns:svg="http://www.w3.org/2000/svg"
   xmlns="http://www.w3.org/2000/svg"
   xmlns:sodipodi="http://sodipodi.sourceforge.net/DTD/sodipodi-0.dtd"
   xmlns:inkscape="http://www.inkscape.org/namespaces/inkscape"
   sodipodi:docname="arrow-right.svg"
   inkscape:version="1.0 (5b275a35d9, 2020-05-03)"
   id="svg1341"
   version="1.1"
   viewBox="0 0 13.229167 10.583333"
   height="40"
   width="50">
  <defs
     id="defs1335" />
  <sodipodi:namedview
     inkscape:window-maximized="1"
     inkscape:window-y="24"
     inkscape:window-x="0"
     inkscape:window-height="791"
     inkscape:window-width="1600"
     units="px"
     showgrid="false"
     inkscape:document-rotation="0"
     inkscape:current-layer="layer1"
     inkscape:document-units="mm"
     inkscape:cy="30.216553"
     inkscape:cx="-1.5112094"
     inkscape:zoom="5.6"
     inkscape:pageshadow="2"
     inkscape:pageopacity="0.0"
     borderopacity="1.0"
     bordercolor="#666666"
     pagecolor="#ffffff"
     id="base" />
  <metadata
     id="metadata1338">
    <rdf:RDF>
      <cc:Work
         rdf:about="">
        <dc:format>image/svg+xml</dc:format>
        <dc:type
           rdf:resource="http://purl.org/dc/dcmitype/StillImage" />
        <dc:title></dc:title>
      </cc:Work>
    </rdf:RDF>
  </metadata>
  <g
     id="layer1"
     inkscape:groupmode="layer"
     inkscape:label="Calque 1">
    <path
       style="stroke-width:0.0259661;fill:#00ca00;fill-opacity:1"
       d="m 5.6120839,0.86170855 0.6391053,-0.5199383 c 0.2706123,-0.22015421 0.7081978,-0.22015421 0.975931,0 L 12.823608,4.8924024 c 0.270614,0.2201543 0.270614,0.5761481 0,0.7939602 L 7.2271202,10.239337 c -0.2706123,0.220153 -0.7081977,0.220153 -0.975931,0 L 5.6120839,9.7193993 C 5.3385926,9.4969022 5.3443506,9.1338827 5.6235983,8.9160694 L 9.0926141,6.2273796 H 0.81879519 c -0.3828876,0 -0.69092426,-0.2506008 -0.69092426,-0.5620956 V 4.9158232 c 0,-0.3114948 0.30803666,-0.5620956 0.69092426,-0.5620956 H 9.0926168 L 5.6235993,1.665037 C 5.3414727,1.4472248 5.3357144,1.084205 5.6120878,0.86170855 Z"
       id="path2512" />
  </g>
</svg>
